Plot: An epic 12-year journey into the brutal and secretive world of Irish Traveler bare-knuckle fighting. This film follows a history of violent feuding between rival clans. 

General
Complete name                    : D:\Uploads\Knuckle 2011 DVDRip-Doco x264 henrick\Knuckle 2011 DVDRip-Doco x264 henrick.mp4
Format                           : MPEG-4
Format profile                   : Base Media / Version 2
Codec ID                         : mp42
File size                        : 907 MiB
Duration                         : 1h 32mn
Overall bit rate                 : 1 366 Kbps
Encoded date                     : UTC 2011-09-09 22:35:08
Tagged date                      : UTC 2011-09-09 22:58:03
Writing application              : HandBrake 0.9.5 2011010300

Video
ID                               : 1
Format                           : AVC
Format/Info                      : Advanced Video Codec
Format profile                   : Main@L3.0
Format settings, CABAC           : Yes
Format settings, ReFrames        : 4 frames
Format settings, GOP             : M=1, N=2
Codec ID                         : avc1
Codec ID/Info                    : Advanced Video Coding
Duration                         : 1h 32mn
Bit rate mode                    : Variable
Bit rate                         : 1 202 Kbps
Width                            : 638 pixels
Height                           : 352 pixels
Display aspect ratio             : 16:9
Frame rate mode                  : Variable
Frame rate                       : 25.000 fps
Minimum frame rate               : 25.000 fps
Maximum frame rate               : 90 000.000 fps
Color space                      : YUV
Chroma subsampling               : 4:2:0
Bit depth                        : 8 bits
Scan type                        : Progressive
Bits/(Pixel*Frame)               : 0.214
Stream size                      : 798 MiB (88%)
Writing library                  : x264 core 112
Encoding settings                : cabac=1 / ref=2 / deblock=1:0:0 / analyse=0x1:0x111 / me=hex / subme=6 / psy=1 / psy_rd=1.00:0.00 / mixed_ref=0 / me_range=16 / chroma_me=1 / trellis=0 / 8x8dct=0 / cqm=0 / deadzone=21,11 / fast_pskip=1 / chroma_qp_offset=-2 / threads=6 / sliced_threads=0 / nr=0 / decimate=1 / interlaced=0 / constrained_intra=0 / bframes=2 / b_pyramid=2 / b_adapt=1 / b_bias=0 / direct=1 / weightb=0 / open_gop=0 / weightp=2 / keyint=250 / keyint_min=25 / scenecut=40 / intra_refresh=0 / rc_lookahead=40 / rc=crf / mbtree=1 / crf=20.0 / qcomp=0.60 / qpmin=3 / qpmax=51 / qpstep=4 / ip_ratio=1.40 / aq=1:1.00
Encoded date                     : UTC 2011-09-09 22:35:08
Tagged date                      : UTC 2011-09-09 22:58:03
Material_Duration                : 5566520
Material_StreamSize              : 836369524
Material_FrameCount              : 139171
Color primaries                  : BT.601-6 525, BT.1358 525, BT.1700 NTSC, SMPTE 170M
Transfer characteristics         : BT.709-5, BT.1361
Matrix coefficients              : BT.601-6 525, BT.1358 525, BT.1700 NTSC, SMPTE 170M

Audio
ID                               : 2
Format                           : AAC
Format/Info                      : Advanced Audio Codec
Format profile                   : LC
Codec ID                         : 40
Duration                         : 1h 32mn
Bit rate mode                    : Variable
Bit rate                         : 160 Kbps
Maximum bit rate                 : 325 Kbps
Channel(s)                       : 2 channels
Channel positions                : Front: L R
Sampling rate                    : 48.0 KHz
Compression mode                 : Lossy
Stream size                      : 106 MiB (12%)
Encoded date                     : UTC 2011-09-09 22:35:08
Tagged date                      : UTC 2011-09-09 22:58:03
Material_Duration                : 5565909
Material_StreamSize              : 111301371

screens... 
http://www.pix2links.com/images/38328581196306099485.png 
http://www.pix2links.com/images/73727268350572901108.png 
http://www.pix2links.com/images/38027426752988718717.png